<?xml version="1.0" encoding="UTF-8" standalone="no"?>
<svg
   width="524.23999"
   height="588.73999"
   viewBox="0 0 524.23999 588.73999"
   version="1.1"
   id="svg231"
   sodipodi:docname="logoHex.inline.svg"
   inkscape:export-filename="C:\Users\kevin\Documents\Applications\Supporting Docs\Logo.png"
   inkscape:export-xdpi="96"
   inkscape:export-ydpi="96"
   inkscape:version="1.1.1 (3bf5ae0d25, 2021-09-20)"
   xmlns:inkscape="http://www.inkscape.org/namespaces/inkscape"
   xmlns:sodipodi="http://sodipodi.sourceforge.net/DTD/sodipodi-0.dtd"
   xmlns="http://www.w3.org/2000/svg"
   xmlns:svg="http://www.w3.org/2000/svg">
  <defs
     id="defs235" />
  <sodipodi:namedview
     id="namedview233"
     pagecolor="#ffffff"
     bordercolor="#666666"
     borderopacity="1.0"
     inkscape:pageshadow="2"
     inkscape:pageopacity="0.0"
     inkscape:pagecheckerboard="0"
     showgrid="false"
     inkscape:zoom="0.4733196"
     inkscape:cx="147.89161"
     inkscape:cy="347.54529"
     inkscape:window-width="1271"
     inkscape:window-height="1081"
     inkscape:window-x="1255"
     inkscape:window-y="142"
     inkscape:window-maximized="0"
     inkscape:current-layer="svg231" />
  <title
     id="title123" />
  <desc
     id="desc125" />
  <polyline
     points="365.49,169.06 439.57,169.06"
     style="fill:none;stroke:#000000;stroke-width:0.5"
     id="polyline127"
     transform="matrix(0.85645702,0,0,0.85645702,-80.462808,37.432894)" />
  <polyline
     points="447.67,173.34 446.45,171.88 444.97,170.68 443.29,169.79 441.46,169.25 439.57,169.06"
     style="fill:none;stroke:#000000;stroke-width:0.5"
     id="polyline129"
     transform="matrix(0.85645702,0,0,0.85645702,-80.462808,37.432894)" />
  <polyline
     points="483.55,225.82 447.67,173.34"
     style="fill:none;stroke:#000000;stroke-width:0.5"
     id="polyline131"
     transform="matrix(0.85645702,0,0,0.85645702,-80.462808,37.432894)" />
  <polyline
     points="483.55,225.82 484.77,227.28 486.25,228.48 487.94,229.37 489.76,229.91 491.66,230.1 493.55,229.91 495.38,229.37 497.06,228.48 498.54,227.28 499.76,225.82"
     style="fill:none;stroke:#000000;stroke-width:0.5"
     id="polyline133"
     transform="matrix(0.85645702,0,0,0.85645702,-80.462808,37.432894)" />
  <polyline
     points="535.64,173.34 499.76,225.82"
     style="fill:none;stroke:#000000;stroke-width:0.5"
     id="polyline135"
     transform="matrix(0.85645702,0,0,0.85645702,-80.462808,37.432894)" />
  <polyline
     points="543.75,169.06 541.85,169.25 540.03,169.79 538.34,170.68 536.86,171.88 535.64,173.34"
     style="fill:none;stroke:#000000;stroke-width:0.5"
     id="polyline137"
     transform="matrix(0.85645702,0,0,0.85645702,-80.462808,37.432894)" />
  <polyline
     points="595.29,169.06 543.75,169.06"
     style="fill:none;stroke:#000000;stroke-width:0.5"
     id="polyline139"
     transform="matrix(0.85645702,0,0,0.85645702,-80.462808,37.432894)" />
  <polyline
     points="603.4,184.43 604.33,182.73 604.91,180.88 605.11,178.96 604.94,177.03 604.39,175.18 603.49,173.47 602.26,171.97 600.77,170.73 599.07,169.82 597.22,169.25 595.29,169.06"
     style="fill:none;stroke:#000000;stroke-width:0.5"
     id="polyline141"
     transform="matrix(0.85645702,0,0,0.85645702,-80.462808,37.432894)" />
  <polyline
     points="526.1,297.49 603.4,184.43"
     style="fill:none;stroke:#000000;stroke-width:0.5"
     id="polyline143"
     transform="matrix(0.85645702,0,0,0.85645702,-80.462808,37.432894)" />
  <polyline
     points="526.1,297.49 525.16,299.21 524.59,301.09 524.39,303.04"
     style="fill:none;stroke:#000000;stroke-width:0.5"
     id="polyline145"
     transform="matrix(0.85645702,0,0,0.85645702,-80.462808,37.432894)" />
  <polyline
     points="524.39,421.12 524.39,303.04"
     style="fill:none;stroke:#000000;stroke-width:0.5"
     id="polyline147"
     transform="matrix(0.85645702,0,0,0.85645702,-80.462808,37.432894)" />
  <polyline
     points="514.57,430.94 516.49,430.75 518.33,430.19 520.03,429.28 521.51,428.06 522.74,426.57 523.64,424.87 524.2,423.03 524.39,421.12"
     style="fill:none;stroke:#000000;stroke-width:0.5"
     id="polyline149"
     transform="matrix(0.85645702,0,0,0.85645702,-80.462808,37.432894)" />
  <polyline
     points="468.74,430.94 514.57,430.94"
     style="fill:none;stroke:#000000;stroke-width:0.5"
     id="polyline151"
     transform="matrix(0.85645702,0,0,0.85645702,-80.462808,37.432894)" />
  <polyline
     points="458.92,421.12 459.11,423.03 459.67,424.87 460.58,426.57 461.8,428.06 463.29,429.28 464.98,430.19 466.83,430.75 468.74,430.94"
     style="fill:none;stroke:#000000;stroke-width:0.5"
     id="polyline153"
     transform="matrix(0.85645702,0,0,0.85645702,-80.462808,37.432894)" />
  <polyline
     points="458.92,303.04 458.92,421.12"
     style="fill:none;stroke:#000000;stroke-width:0.5"
     id="polyline155"
     transform="matrix(0.85645702,0,0,0.85645702,-80.462808,37.432894)" />
  <polyline
     points="458.92,303.04 458.73,301.09 458.15,299.21 457.21,297.49"
     style="fill:none;stroke:#000000;stroke-width:0.5"
     id="polyline157"
     transform="matrix(0.85645702,0,0,0.85645702,-80.462808,37.432894)" />
  <polyline
     points="400,213.81 457.21,297.49"
     style="fill:none;stroke:#000000;stroke-width:0.5"
     id="polyline159"
     transform="matrix(0.85645702,0,0,0.85645702,-80.462808,37.432894)" />
  <polyline
     points="433.57,180.24 354.22,259.59"
     style="fill:none;stroke:#000000;stroke-width:0.5"
     id="polyline161"
     transform="matrix(0.85645702,0,0,0.85645702,-80.462808,37.432894)" />
  <polyline
     points="354.22,259.59 353.05,261 352.17,262.6 351.59,264.35 351.35,266.16 351.46,267.99 351.9,269.77 352.66,271.44"
     style="fill:none;stroke:#000000;stroke-width:0.5"
     id="polyline163"
     transform="matrix(0.85645702,0,0,0.85645702,-80.462808,37.432894)" />
  <polyline
     points="352.66,271.44 436.24,416.21"
     style="fill:none;stroke:#000000;stroke-width:0.5"
     id="polyline165"
     transform="matrix(0.85645702,0,0,0.85645702,-80.462808,37.432894)" />
  <polyline
     points="427.74,430.94 429.6,430.76 431.39,430.23 433.05,429.38 434.52,428.22 435.74,426.81 436.67,425.2 437.28,423.43 437.55,421.58 437.46,419.72 437.02,417.9 436.24,416.21"
     style="fill:none;stroke:#000000;stroke-width:0.5"
     id="polyline167"
     transform="matrix(0.85645702,0,0,0.85645702,-80.462808,37.432894)" />
  <polyline
     points="427.74,430.94 382.38,430.94"
     style="fill:none;stroke:#000000;stroke-width:0.5"
     id="polyline169"
     transform="matrix(0.85645702,0,0,0.85645702,-80.462808,37.432894)" />
  <polyline
     points="373.88,426.03 374.86,427.43 376.07,428.64 377.47,429.62 379.02,430.34 380.68,430.79 382.38,430.94"
     style="fill:none;stroke:#000000;stroke-width:0.5"
     id="polyline171"
     transform="matrix(0.85645702,0,0,0.85645702,-80.462808,37.432894)" />
  <polyline
     points="373.88,426.03 312.16,319.13"
     style="fill:none;stroke:#000000;stroke-width:0.5"
     id="polyline173"
     transform="matrix(0.85645702,0,0,0.85645702,-80.462808,37.432894)" />
  <polyline
     points="312.16,319.13 311.12,317.66 309.84,316.41 308.34,315.41 306.69,314.7 304.94,314.31 303.14,314.24 301.36,314.49 299.66,315.07 298.09,315.95 296.71,317.1"
     style="fill:none;stroke:#000000;stroke-width:0.5"
     id="polyline175"
     transform="matrix(0.85645702,0,0,0.85645702,-80.462808,37.432894)" />
  <polyline
     points="296.71,317.1 274.84,338.97"
     style="fill:none;stroke:#000000;stroke-width:0.5"
     id="polyline177"
     transform="matrix(0.85645702,0,0,0.85645702,-80.462808,37.432894)" />
  <polyline
     points="274.84,338.97 273.62,340.46 272.71,342.16 272.15,344 271.96,345.92"
     style="fill:none;stroke:#000000;stroke-width:0.5"
     id="polyline179"
     transform="matrix(0.85645702,0,0,0.85645702,-80.462808,37.432894)" />
  <polyline
     points="271.96,345.92 271.96,421.12"
     style="fill:none;stroke:#000000;stroke-width:0.5"
     id="polyline181"
     transform="matrix(0.85645702,0,0,0.85645702,-80.462808,37.432894)" />
  <polyline
     points="262.14,430.94 264.06,430.75 265.9,430.19 267.6,429.28 269.09,428.06 270.31,426.57 271.21,424.87 271.77,423.03 271.96,421.12"
     style="fill:none;stroke:#000000;stroke-width:0.5"
     id="polyline183"
     transform="matrix(0.85645702,0,0,0.85645702,-80.462808,37.432894)" />
  <polyline
     points="262.14,430.94 216.31,430.94"
     style="fill:none;stroke:#000000;stroke-width:0.5"
     id="polyline185"
     transform="matrix(0.85645702,0,0,0.85645702,-80.462808,37.432894)" />
  <polyline
     points="206.49,421.12 206.68,423.03 207.24,424.87 208.15,426.57 209.37,428.06 210.86,429.28 212.56,430.19 214.4,430.75 216.31,430.94"
     style="fill:none;stroke:#000000;stroke-width:0.5"
     id="polyline187"
     transform="matrix(0.85645702,0,0,0.85645702,-80.462808,37.432894)" />
  <polyline
     points="206.49,421.12 206.49,178.88"
     style="fill:none;stroke:#000000;stroke-width:0.5"
     id="polyline189"
     transform="matrix(0.85645702,0,0,0.85645702,-80.462808,37.432894)" />
  <polyline
     points="216.31,169.06 214.4,169.25 212.56,169.81 210.86,170.72 209.37,171.94 208.15,173.43 207.24,175.13 206.68,176.97 206.49,178.88"
     style="fill:none;stroke:#000000;stroke-width:0.5"
     id="polyline191"
     transform="matrix(0.85645702,0,0,0.85645702,-80.462808,37.432894)" />
  <polyline
     points="216.31,169.06 262.14,169.06"
     style="fill:none;stroke:#000000;stroke-width:0.5"
     id="polyline193"
     transform="matrix(0.85645702,0,0,0.85645702,-80.462808,37.432894)" />
  <polyline
     points="271.96,178.88 271.77,176.97 271.21,175.13 270.31,173.43 269.09,171.94 267.6,170.72 265.9,169.81 264.06,169.25 262.14,169.06"
     style="fill:none;stroke:#000000;stroke-width:0.5"
     id="polyline195"
     transform="matrix(0.85645702,0,0,0.85645702,-80.462808,37.432894)" />
  <polyline
     points="271.96,178.88 271.96,234.81"
     style="fill:none;stroke:#000000;stroke-width:0.5"
     id="polyline197"
     transform="matrix(0.85645702,0,0,0.85645702,-80.462808,37.432894)" />
  <polyline
     points="271.96,234.81 272.15,236.73 272.71,238.57 273.62,240.27 274.84,241.76 276.33,242.98 278.02,243.89 279.87,244.45 281.78,244.63 283.7,244.45 285.54,243.89 287.24,242.98 288.73,241.76"
     style="fill:none;stroke:#000000;stroke-width:0.5"
     id="polyline199"
     transform="matrix(0.85645702,0,0,0.85645702,-80.462808,37.432894)" />
  <polyline
     points="288.73,241.76 358.54,171.94"
     style="fill:none;stroke:#000000;stroke-width:0.5"
     id="polyline201"
     transform="matrix(0.85645702,0,0,0.85645702,-80.462808,37.432894)" />
  <polyline
     points="365.49,169.06 363.57,169.25 361.73,169.81 360.03,170.72 358.54,171.94"
     style="fill:none;stroke:#000000;stroke-width:0.5"
     id="polyline203"
     transform="matrix(0.85645702,0,0,0.85645702,-80.462808,37.432894)" />
  <polyline
     points="465.47,35.41 462.91,33.94 461.64,33.2 460.36,32.46 459.09,31.73 457.83,31 456.57,30.27 455.31,29.55 454.06,28.83 452.82,28.12 451.58,27.41 450.36,26.7 449.14,26 448.53,25.66 447.93,25.31 447.33,24.97 446.73,24.62 446.13,24.28 445.54,23.95 444.94,23.61 444.35,23.28 443.77,22.94 443.18,22.61 442.6,22.28 442.02,21.96 441.44,21.63 440.87,21.31 440.3,20.99 439.73,20.68 439.16,20.36 438.6,20.05 438.04,19.74 437.48,19.43 436.93,19.13 436.38,18.82 435.83,18.52 435.28,18.23 434.74,17.93 434.2,17.64 433.66,17.35 433.13,17.07 432.59,16.78 432.07,16.5 431.54,16.23 431.02,15.95 430.5,15.68 429.98,15.41 429.47,15.15 428.95,14.89 428.45,14.63 427.94,14.37 427.44,14.12 426.94,13.87 426.44,13.63 425.94,13.38 425.45,13.14 424.96,12.91 424.48,12.68 423.99,12.45 423.51,12.22 423.03,12 422.56,11.78 422.08,11.57 421.61,11.36 421.14,11.15 420.68,10.95 420.21,10.75 419.75,10.55 419.29,10.36 418.84,10.17 418.38,9.99 417.93,9.81 417.48,9.63 417.03,9.46 416.59,9.29 416.15,9.12 415.71,8.96 415.27,8.8 414.83,8.65 414.39,8.5 413.96,8.35 413.53,8.21 413.1,8.07 412.67,7.94 412.25,7.81 411.82,7.69 411.4,7.56 410.98,7.45 410.56,7.33 410.14,7.23 409.72,7.12 409.31,7.02 408.89,6.92 408.48,6.83 408.07,6.74 407.66,6.66 407.25,6.58 406.84,6.51 406.43,6.43 406.03,6.37 405.62,6.31 405.22,6.25 404.81,6.19 404.41,6.14 404.01,6.1 403.6,6.06 403.2,6.02 402.8,5.99 402.4,5.96 402,5.94 401.6,5.92 401.2,5.9 400.8,5.89 400.4,5.88 400,5.88 399.6,5.88 399.2,5.89 398.8,5.9 398.4,5.92 398,5.94 397.6,5.96 397.2,5.99 396.8,6.02 396.4,6.06 395.99,6.1 395.59,6.14 395.19,6.19 394.78,6.25 394.38,6.31 393.97,6.37 393.57,6.43 393.16,6.51 392.75,6.58 392.34,6.66 391.93,6.74 391.52,6.83 391.11,6.92 390.69,7.02 390.28,7.12 389.86,7.23 389.44,7.33 389.02,7.45 388.6,7.56 388.18,7.69 387.75,7.81 387.33,7.94 386.9,8.07 386.47,8.21 386.04,8.35 385.61,8.5 385.17,8.65 384.73,8.8 384.29,8.96 383.85,9.12 383.41,9.29 382.97,9.46 382.52,9.63 382.07,9.81 381.62,9.99 381.16,10.17 380.71,10.36 380.25,10.55 379.79,10.75 379.32,10.95 378.86,11.15 378.39,11.36 377.92,11.57 377.44,11.78 376.97,12 376.49,12.22 376.01,12.45 375.52,12.68 375.04,12.91 374.55,13.14 374.06,13.38 373.56,13.63 373.06,13.87 372.56,14.12 372.06,14.37 371.55,14.63 371.05,14.89 370.53,15.15 370.02,15.41 369.5,15.68 368.98,15.95 368.46,16.23 367.93,16.5 367.41,16.78 366.87,17.07 366.34,17.35 365.8,17.64 365.26,17.93 364.72,18.23 364.17,18.52 363.62,18.82 363.07,19.13 362.52,19.43 361.96,19.74 361.4,20.05 360.84,20.36 360.27,20.68 359.7,20.99 359.13,21.31 358.56,21.63 357.98,21.96 357.4,22.28 356.82,22.61 356.23,22.94 355.65,23.28 355.06,23.61 354.46,23.95 353.87,24.28 353.27,24.62 352.67,24.97 352.07,25.31 351.47,25.66 350.86,26 349.64,26.7 348.42,27.41 347.18,28.12 345.94,28.83 344.69,29.55 343.43,30.27 342.17,31 340.91,31.73 339.64,32.46 338.36,33.2 337.09,33.94 334.53,35.41"
     style="fill:none;stroke:#000000;stroke-width:0.5"
     id="polyline205"
     transform="matrix(0.85645702,0,0,0.85645702,-80.462808,37.432894)" />
  <polyline
     points="334.53,35.41 203.59,111.01"
     style="fill:none;stroke:#000000;stroke-width:0.5"
     id="polyline207"
     transform="matrix(0.85645702,0,0,0.85645702,-80.462808,37.432894)" />
  <polyline
     points="203.59,111.01 201.04,112.48 199.76,113.22 198.49,113.96 197.22,114.69 195.95,115.42 194.69,116.15 193.44,116.87 192.19,117.6 190.95,118.31 190.33,118.67 189.72,119.03 189.11,119.39 188.5,119.74 187.89,120.09 187.28,120.45 186.68,120.8 186.08,121.15 185.48,121.5 184.88,121.85 184.29,122.19 183.7,122.54 183.11,122.88 182.53,123.23 181.94,123.57 181.37,123.91 180.79,124.25 180.22,124.59 179.65,124.93 179.08,125.26 178.52,125.6 177.96,125.93 177.41,126.26 176.85,126.59 176.31,126.93 175.76,127.25 175.22,127.58 174.68,127.91 174.15,128.23 173.62,128.56 173.09,128.88 172.57,129.2 172.05,129.52 171.54,129.84 171.02,130.16 170.52,130.48 170.01,130.8 169.52,131.11 169.02,131.43 168.53,131.74 168.04,132.06 167.56,132.37 167.08,132.68 166.61,132.99 166.14,133.3 165.67,133.61 165.21,133.92 164.75,134.22 164.3,134.53 163.85,134.84 163.41,135.14 162.97,135.45 162.53,135.75 162.1,136.05 161.68,136.36 161.25,136.66 160.84,136.96 160.42,137.27 160.01,137.57 159.61,137.87 159.21,138.17 158.81,138.47 158.42,138.77 158.03,139.07 157.65,139.37 157.27,139.67 156.9,139.98 156.53,140.28 156.16,140.58 155.8,140.88 155.45,141.18 155.1,141.48 154.75,141.78 154.41,142.09 154.07,142.39 153.73,142.69 153.41,143 153.08,143.3 152.76,143.6 152.44,143.91 152.13,144.22 151.82,144.52 151.52,144.83 151.22,145.14 150.93,145.45 150.64,145.76 150.35,146.07 150.07,146.38 149.79,146.7 149.52,147.01 149.25,147.33 148.98,147.65 148.72,147.96 148.46,148.28 148.21,148.61 147.96,148.93 147.72,149.25 147.48,149.58 147.24,149.91 147.01,150.24 146.78,150.57 146.55,150.9 146.33,151.24 146.12,151.57 145.9,151.91 145.69,152.25 145.49,152.6 145.29,152.94 145.09,153.29 144.89,153.64 144.7,153.99 144.52,154.34 144.33,154.7 144.15,155.06 143.98,155.42 143.81,155.78 143.64,156.15 143.47,156.52 143.31,156.89 143.15,157.26 142.99,157.64 142.84,158.02 142.69,158.4 142.55,158.79 142.41,159.18 142.27,159.57 142.13,159.96 142,160.36 141.87,160.76 141.74,161.16 141.62,161.57 141.5,161.98 141.38,162.39 141.26,162.81 141.15,163.23 141.04,163.65 140.94,164.08 140.83,164.51 140.73,164.95 140.63,165.38 140.54,165.82 140.45,166.27 140.36,166.72 140.27,167.17 140.18,167.62 140.1,168.08 140.02,168.54 139.94,169.01 139.86,169.48 139.79,169.95 139.72,170.43 139.65,170.91 139.58,171.4 139.52,171.89 139.46,172.38 139.39,172.88 139.34,173.38 139.28,173.89 139.22,174.4 139.17,174.91 139.12,175.43 139.07,175.95 139.02,176.47 138.98,177 138.93,177.54 138.89,178.07 138.85,178.61 138.81,179.16 138.77,179.71 138.74,180.26 138.7,180.82 138.67,181.38 138.64,181.95 138.61,182.52 138.58,183.09 138.55,183.67 138.52,184.25 138.5,184.84 138.47,185.43 138.45,186.02 138.43,186.62 138.41,187.22 138.39,187.83 138.37,188.44 138.35,189.05 138.34,189.67 138.32,190.29 138.31,190.91 138.29,191.54 138.28,192.18 138.27,192.81 138.25,193.45 138.24,194.1 138.23,194.74 138.22,195.4 138.21,196.05 138.21,196.71 138.2,197.37 138.19,198.03 138.18,198.7 138.18,199.37 138.17,200.05 138.17,200.73 138.16,201.41 138.16,202.09 138.15,202.78 138.15,203.47 138.15,204.16 138.14,204.86 138.14,205.56 138.14,206.26 138.14,206.96 138.14,207.67 138.13,208.38 138.13,209.09 138.13,209.8 138.13,211.24 138.13,212.68 138.13,214.13 138.13,215.58 138.13,217.04 138.13,218.51 138.13,219.98 138.13,221.45 138.13,224.4"
     style="fill:none;stroke:#000000;stroke-width:0.5"
     id="polyline209"
     transform="matrix(0.85645702,0,0,0.85645702,-80.462808,37.432894)" />
  <polyline
     points="138.13,224.4 138.13,375.6"
     style="fill:none;stroke:#000000;stroke-width:0.5"
     id="polyline211"
     transform="matrix(0.85645702,0,0,0.85645702,-80.462808,37.432894)" />
  <polyline
     points="138.13,375.6 138.13,378.55 138.13,380.02 138.13,381.49 138.13,382.96 138.13,384.42 138.13,385.87 138.13,387.32 138.13,388.76 138.13,390.2 138.13,390.91 138.13,391.62 138.14,392.33 138.14,393.04 138.14,393.74 138.14,394.44 138.14,395.14 138.15,395.84 138.15,396.53 138.15,397.22 138.16,397.91 138.16,398.59 138.17,399.27 138.17,399.95 138.18,400.63 138.18,401.3 138.19,401.97 138.2,402.63 138.21,403.29 138.21,403.95 138.22,404.6 138.23,405.26 138.24,405.9 138.25,406.55 138.27,407.19 138.28,407.82 138.29,408.46 138.31,409.09 138.32,409.71 138.34,410.33 138.35,410.95 138.37,411.56 138.39,412.17 138.41,412.78 138.43,413.38 138.45,413.98 138.47,414.57 138.5,415.16 138.52,415.75 138.55,416.33 138.58,416.91 138.61,417.48 138.64,418.05 138.67,418.62 138.7,419.18 138.74,419.74 138.77,420.29 138.81,420.84 138.85,421.39 138.89,421.93 138.93,422.46 138.98,423 139.02,423.53 139.07,424.05 139.12,424.57 139.17,425.09 139.22,425.6 139.28,426.11 139.34,426.62 139.39,427.12 139.46,427.62 139.52,428.11 139.58,428.6 139.65,429.09 139.72,429.57 139.79,430.05 139.86,430.52 139.94,430.99 140.02,431.46 140.1,431.92 140.18,432.38 140.27,432.83 140.36,433.28 140.45,433.73 140.54,434.18 140.63,434.62 140.73,435.05 140.83,435.49 140.94,435.92 141.04,436.35 141.15,436.77 141.26,437.19 141.38,437.61 141.5,438.02 141.62,438.43 141.74,438.84 141.87,439.24 142,439.64 142.13,440.04 142.27,440.43 142.41,440.82 142.55,441.21 142.69,441.6 142.84,441.98 142.99,442.36 143.15,442.74 143.31,443.11 143.47,443.48 143.64,443.85 143.81,444.22 143.98,444.58 144.15,444.94 144.33,445.3 144.52,445.66 144.7,446.01 144.89,446.36 145.09,446.71 145.29,447.06 145.49,447.4 145.69,447.75 145.9,448.09 146.12,448.43 146.33,448.76 146.55,449.1 146.78,449.43 147.01,449.76 147.24,450.09 147.48,450.42 147.72,450.75 147.96,451.07 148.21,451.39 148.46,451.72 148.72,452.04 148.98,452.35 149.25,452.67 149.52,452.99 149.79,453.3 150.07,453.62 150.35,453.93 150.64,454.24 150.93,454.55 151.22,454.86 151.52,455.17 151.82,455.48 152.13,455.78 152.44,456.09 152.76,456.4 153.08,456.7 153.41,457 153.73,457.31 154.07,457.61 154.41,457.91 154.75,458.22 155.1,458.52 155.45,458.82 155.8,459.12 156.16,459.42 156.53,459.72 156.9,460.02 157.27,460.33 157.65,460.63 158.03,460.93 158.42,461.23 158.81,461.53 159.21,461.83 159.61,462.13 160.01,462.43 160.42,462.73 160.84,463.04 161.25,463.34 161.68,463.64 162.1,463.95 162.53,464.25 162.97,464.55 163.41,464.86 163.85,465.16 164.3,465.47 164.75,465.78 165.21,466.08 165.67,466.39 166.14,466.7 166.61,467.01 167.08,467.32 167.56,467.63 168.04,467.94 168.53,468.26 169.02,468.57 169.52,468.89 170.01,469.2 170.52,469.52 171.02,469.84 171.54,470.16 172.05,470.48 172.57,470.8 173.09,471.12 173.62,471.44 174.15,471.77 174.68,472.09 175.22,472.42 175.76,472.75 176.31,473.07 176.85,473.41 177.41,473.74 177.96,474.07 178.52,474.4 179.08,474.74 179.65,475.07 180.22,475.41 180.79,475.75 181.37,476.09 181.94,476.43 182.53,476.77 183.11,477.12 183.7,477.46 184.29,477.81 184.88,478.15 185.48,478.5 186.08,478.85 186.68,479.2 187.28,479.55 187.89,479.91 188.5,480.26 189.11,480.61 189.72,480.97 190.33,481.33 190.95,481.69 192.19,482.4 193.44,483.13 194.69,483.85 195.95,484.58 197.22,485.31 198.49,486.04 199.76,486.78 201.04,487.52 203.59,488.99"
     style="fill:none;stroke:#000000;stroke-width:0.5"
     id="polyline213"
     transform="matrix(0.85645702,0,0,0.85645702,-80.462808,37.432894)" />
  <polyline
     points="203.59,488.99 334.53,564.59"
     style="fill:none;stroke:#000000;stroke-width:0.5"
     id="polyline215"
     transform="matrix(0.85645702,0,0,0.85645702,-80.462808,37.432894)" />
  <polyline
     points="334.53,564.59 337.09,566.06 338.36,566.8 339.64,567.54 340.91,568.27 342.17,569 343.43,569.73 344.69,570.45 345.94,571.17 347.18,571.88 348.42,572.59 349.64,573.3 350.86,574 351.47,574.34 352.07,574.69 352.67,575.03 353.27,575.38 353.87,575.72 354.46,576.05 355.06,576.39 355.65,576.72 356.23,577.06 356.82,577.39 357.4,577.72 357.98,578.04 358.56,578.37 359.13,578.69 359.7,579.01 360.27,579.32 360.84,579.64 361.4,579.95 361.96,580.26 362.52,580.57 363.07,580.87 363.62,581.18 364.17,581.48 364.72,581.77 365.26,582.07 365.8,582.36 366.34,582.65 366.87,582.93 367.41,583.22 367.93,583.5 368.46,583.77 368.98,584.05 369.5,584.32 370.02,584.59 370.53,584.85 371.05,585.11 371.55,585.37 372.06,585.63 372.56,585.88 373.06,586.13 373.56,586.37 374.06,586.62 374.55,586.86 375.04,587.09 375.52,587.32 376.01,587.55 376.49,587.78 376.97,588 377.44,588.22 377.92,588.43 378.39,588.64 378.86,588.85 379.32,589.05 379.79,589.25 380.25,589.45 380.71,589.64 381.16,589.83 381.62,590.01 382.07,590.19 382.52,590.37 382.97,590.54 383.41,590.71 383.85,590.88 384.29,591.04 384.73,591.2 385.17,591.35 385.61,591.5 386.04,591.65 386.47,591.79 386.9,591.93 387.33,592.06 387.75,592.19 388.18,592.31 388.6,592.44 389.02,592.55 389.44,592.67 389.86,592.77 390.28,592.88 390.69,592.98 391.11,593.08 391.52,593.17 391.93,593.26 392.34,593.34 392.75,593.42 393.16,593.49 393.57,593.57 393.97,593.63 394.38,593.69 394.78,593.75 395.19,593.81 395.59,593.86 395.99,593.9 396.4,593.94 396.8,593.98 397.2,594.01 397.6,594.04 398,594.06 398.4,594.08 398.8,594.1 399.2,594.11 399.6,594.12 400,594.12 400.4,594.12 400.8,594.11 401.2,594.1 401.6,594.08 402,594.06 402.4,594.04 402.8,594.01 403.2,593.98 403.6,593.94 404.01,593.9 404.41,593.86 404.81,593.81 405.22,593.75 405.62,593.69 406.03,593.63 406.43,593.57 406.84,593.49 407.25,593.42 407.66,593.34 408.07,593.26 408.48,593.17 408.89,593.08 409.31,592.98 409.72,592.88 410.14,592.77 410.56,592.67 410.98,592.55 411.4,592.44 411.82,592.31 412.25,592.19 412.67,592.06 413.1,591.93 413.53,591.79 413.96,591.65 414.39,591.5 414.83,591.35 415.27,591.2 415.71,591.04 416.15,590.88 416.59,590.71 417.03,590.54 417.48,590.37 417.93,590.19 418.38,590.01 418.84,589.83 419.29,589.64 419.75,589.45 420.21,589.25 420.68,589.05 421.14,588.85 421.61,588.64 422.08,588.43 422.56,588.22 423.03,588 423.51,587.78 423.99,587.55 424.48,587.32 424.96,587.09 425.45,586.86 425.94,586.62 426.44,586.37 426.94,586.13 427.44,585.88 427.94,585.63 428.45,585.37 428.95,585.11 429.47,584.85 429.98,584.59 430.5,584.32 431.02,584.05 431.54,583.77 432.07,583.5 432.59,583.22 433.13,582.93 433.66,582.65 434.2,582.36 434.74,582.07 435.28,581.77 435.83,581.48 436.38,581.18 436.93,580.87 437.48,580.57 438.04,580.26 438.6,579.95 439.16,579.64 439.73,579.32 440.3,579.01 440.87,578.69 441.44,578.37 442.02,578.04 442.6,577.72 443.18,577.39 443.77,577.06 444.35,576.72 444.94,576.39 445.54,576.05 446.13,575.72 446.73,575.38 447.33,575.03 447.93,574.69 448.53,574.34 449.14,574 450.36,573.3 451.58,572.59 452.82,571.88 454.06,571.17 455.31,570.45 456.57,569.73 457.83,569 459.09,568.27 460.36,567.54 461.64,566.8 462.91,566.06 465.47,564.59"
     style="fill:none;stroke:#000000;stroke-width:0.5"
     id="polyline217"
     transform="matrix(0.85645702,0,0,0.85645702,-80.462808,37.432894)" />
  <polyline
     points="465.47,564.59 596.41,488.99"
     style="fill:none;stroke:#000000;stroke-width:0.5"
     id="polyline219"
     transform="matrix(0.85645702,0,0,0.85645702,-80.462808,37.432894)" />
  <polyline
     points="596.41,488.99 598.96,487.52 600.24,486.78 601.51,486.04 602.78,485.31 604.05,484.58 605.31,483.85 606.56,483.13 607.81,482.4 609.05,481.69 609.67,481.33 610.28,480.97 610.89,480.61 611.5,480.26 612.11,479.91 612.72,479.55 613.32,479.2 613.92,478.85 614.52,478.5 615.12,478.15 615.71,477.81 616.3,477.46 616.89,477.12 617.47,476.77 618.06,476.43 618.63,476.09 619.21,475.75 619.78,475.41 620.35,475.07 620.92,474.74 621.48,474.4 622.04,474.07 622.59,473.74 623.15,473.41 623.69,473.07 624.24,472.75 624.78,472.42 625.32,472.09 625.85,471.77 626.38,471.44 626.91,471.12 627.43,470.8 627.95,470.48 628.46,470.16 628.98,469.84 629.48,469.52 629.99,469.2 630.48,468.89 630.98,468.57 631.47,468.26 631.96,467.94 632.44,467.63 632.92,467.32 633.39,467.01 633.86,466.7 634.33,466.39 634.79,466.08 635.25,465.78 635.7,465.47 636.15,465.16 636.59,464.86 637.03,464.55 637.47,464.25 637.9,463.95 638.32,463.64 638.75,463.34 639.16,463.04 639.58,462.73 639.99,462.43 640.39,462.13 640.79,461.83 641.19,461.53 641.58,461.23 641.97,460.93 642.35,460.63 642.73,460.33 643.1,460.02 643.47,459.72 643.84,459.42 644.2,459.12 644.55,458.82 644.9,458.52 645.25,458.22 645.59,457.91 645.93,457.61 646.27,457.31 646.59,457 646.92,456.7 647.24,456.4 647.56,456.09 647.87,455.78 648.18,455.48 648.48,455.17 648.78,454.86 649.07,454.55 649.36,454.24 649.65,453.93 649.93,453.62 650.21,453.3 650.48,452.99 650.75,452.67 651.02,452.35 651.28,452.04 651.54,451.72 651.79,451.39 652.04,451.07 652.28,450.75 652.52,450.42 652.76,450.09 652.99,449.76 653.22,449.43 653.45,449.1 653.67,448.76 653.88,448.43 654.1,448.09 654.31,447.75 654.51,447.4 654.71,447.06 654.91,446.71 655.11,446.36 655.3,446.01 655.48,445.66 655.67,445.3 655.85,444.94 656.02,444.58 656.19,444.22 656.36,443.85 656.53,443.48 656.69,443.11 656.85,442.74 657.01,442.36 657.16,441.98 657.31,441.6 657.45,441.21 657.59,440.82 657.73,440.43 657.87,440.04 658,439.64 658.13,439.24 658.26,438.84 658.38,438.43 658.5,438.02 658.62,437.61 658.74,437.19 658.85,436.77 658.96,436.35 659.06,435.92 659.17,435.49 659.27,435.05 659.37,434.62 659.46,434.18 659.55,433.73 659.64,433.28 659.73,432.83 659.82,432.38 659.9,431.92 659.98,431.46 660.06,430.99 660.14,430.52 660.21,430.05 660.28,429.57 660.35,429.09 660.42,428.6 660.48,428.11 660.54,427.62 660.61,427.12 660.66,426.62 660.72,426.11 660.78,425.6 660.83,425.09 660.88,424.57 660.93,424.05 660.98,423.53 661.02,423 661.07,422.46 661.11,421.93 661.15,421.39 661.19,420.84 661.23,420.29 661.26,419.74 661.3,419.18 661.33,418.62 661.36,418.05 661.39,417.48 661.42,416.91 661.45,416.33 661.48,415.75 661.5,415.16 661.53,414.57 661.55,413.98 661.57,413.38 661.59,412.78 661.61,412.17 661.63,411.56 661.65,410.95 661.66,410.33 661.68,409.71 661.69,409.09 661.71,408.46 661.72,407.82 661.73,407.19 661.75,406.55 661.76,405.9 661.77,405.26 661.78,404.6 661.79,403.95 661.79,403.29 661.8,402.63 661.81,401.97 661.82,401.3 661.82,400.63 661.83,399.95 661.83,399.27 661.84,398.59 661.84,397.91 661.85,397.22 661.85,396.53 661.85,395.84 661.86,395.14 661.86,394.44 661.86,393.74 661.86,393.04 661.86,392.33 661.87,391.62 661.87,390.91 661.87,390.2 661.87,388.76 661.87,387.32 661.87,385.87 661.87,384.42 661.87,382.96 661.87,381.49 661.87,380.02 661.87,378.55 661.87,375.6"
     style="fill:none;stroke:#000000;stroke-width:0.5"
     id="polyline221"
     transform="matrix(0.85645702,0,0,0.85645702,-80.462808,37.432894)" />
  <polyline
     points="661.87,375.6 661.87,224.4"
     style="fill:none;stroke:#000000;stroke-width:0.5"
     id="polyline223"
     transform="matrix(0.85645702,0,0,0.85645702,-80.462808,37.432894)" />
  <polyline
     points="661.87,224.4 661.87,221.45 661.87,219.98 661.87,218.51 661.87,217.04 661.87,215.58 661.87,214.13 661.87,212.68 661.87,211.24 661.87,209.8 661.87,209.09 661.87,208.38 661.86,207.67 661.86,206.96 661.86,206.26 661.86,205.56 661.86,204.86 661.85,204.16 661.85,203.47 661.85,202.78 661.84,202.09 661.84,201.41 661.83,200.73 661.83,200.05 661.82,199.37 661.82,198.7 661.81,198.03 661.8,197.37 661.79,196.71 661.79,196.05 661.78,195.4 661.77,194.74 661.76,194.1 661.75,193.45 661.73,192.81 661.72,192.18 661.71,191.54 661.69,190.91 661.68,190.29 661.66,189.67 661.65,189.05 661.63,188.44 661.61,187.83 661.59,187.22 661.57,186.62 661.55,186.02 661.53,185.43 661.5,184.84 661.48,184.25 661.45,183.67 661.42,183.09 661.39,182.52 661.36,181.95 661.33,181.38 661.3,180.82 661.26,180.26 661.23,179.71 661.19,179.16 661.15,178.61 661.11,178.07 661.07,177.54 661.02,177 660.98,176.47 660.93,175.95 660.88,175.43 660.83,174.91 660.78,174.4 660.72,173.89 660.66,173.38 660.61,172.88 660.54,172.38 660.48,171.89 660.42,171.4 660.35,170.91 660.28,170.43 660.21,169.95 660.14,169.48 660.06,169.01 659.98,168.54 659.9,168.08 659.82,167.62 659.73,167.17 659.64,166.72 659.55,166.27 659.46,165.82 659.37,165.38 659.27,164.95 659.17,164.51 659.06,164.08 658.96,163.65 658.85,163.23 658.74,162.81 658.62,162.39 658.5,161.98 658.38,161.57 658.26,161.16 658.13,160.76 658,160.36 657.87,159.96 657.73,159.57 657.59,159.18 657.45,158.79 657.31,158.4 657.16,158.02 657.01,157.64 656.85,157.26 656.69,156.89 656.53,156.52 656.36,156.15 656.19,155.78 656.02,155.42 655.85,155.06 655.67,154.7 655.48,154.34 655.3,153.99 655.11,153.64 654.91,153.29 654.71,152.94 654.51,152.6 654.31,152.25 654.1,151.91 653.88,151.57 653.67,151.24 653.45,150.9 653.22,150.57 652.99,150.24 652.76,149.91 652.52,149.58 652.28,149.25 652.04,148.93 651.79,148.61 651.54,148.28 651.28,147.96 651.02,147.65 650.75,147.33 650.48,147.01 650.21,146.7 649.93,146.38 649.65,146.07 649.36,145.76 649.07,145.45 648.78,145.14 648.48,144.83 648.18,144.52 647.87,144.22 647.56,143.91 647.24,143.6 646.92,143.3 646.59,143 646.27,142.69 645.93,142.39 645.59,142.09 645.25,141.78 644.9,141.48 644.55,141.18 644.2,140.88 643.84,140.58 643.47,140.28 643.1,139.98 642.73,139.67 642.35,139.37 641.97,139.07 641.58,138.77 641.19,138.47 640.79,138.17 640.39,137.87 639.99,137.57 639.58,137.27 639.16,136.96 638.75,136.66 638.32,136.36 637.9,136.05 637.47,135.75 637.03,135.45 636.59,135.14 636.15,134.84 635.7,134.53 635.25,134.22 634.79,133.92 634.33,133.61 633.86,133.3 633.39,132.99 632.92,132.68 632.44,132.37 631.96,132.06 631.47,131.74 630.98,131.43 630.48,131.11 629.99,130.8 629.48,130.48 628.98,130.16 628.46,129.84 627.95,129.52 627.43,129.2 626.91,128.88 626.38,128.56 625.85,128.23 625.32,127.91 624.78,127.58 624.24,127.25 623.69,126.93 623.15,126.59 622.59,126.26 622.04,125.93 621.48,125.6 620.92,125.26 620.35,124.93 619.78,124.59 619.21,124.25 618.63,123.91 618.06,123.57 617.47,123.23 616.89,122.88 616.3,122.54 615.71,122.19 615.12,121.85 614.52,121.5 613.92,121.15 613.32,120.8 612.72,120.45 612.11,120.09 611.5,119.74 610.89,119.39 610.28,119.03 609.67,118.67 609.05,118.31 607.81,117.6 606.56,116.87 605.31,116.15 604.05,115.42 602.78,114.69 601.51,113.96 600.24,113.22 598.96,112.48 596.41,111.01"
     style="fill:none;stroke:#000000;stroke-width:0.5"
     id="polyline225"
     transform="matrix(0.85645702,0,0,0.85645702,-80.462808,37.432894)" />
  <polyline
     points="596.41,111.01 465.47,35.41"
     style="fill:none;stroke:#000000;stroke-width:0.5"
     id="polyline227"
     transform="matrix(0.85645702,0,0,0.85645702,-80.462808,37.432894)" />
  <polyline
     points="433.57,180.24 434.52,179.03 435.17,177.63 435.47,176.12 435.41,174.59 434.99,173.1 434.24,171.76 433.19,170.63 431.91,169.78 430.47,169.24 428.94,169.06"
     style="fill:none;stroke:#000000;stroke-width:0.5"
     id="polyline229"
     transform="matrix(0.85645702,0,0,0.85645702,-80.462808,37.432894)" />
  <path
     style="fill:#098181;fill-opacity:1;stroke-width:0.319872"
     d="m 319.20132,405.81519 c -2.75878,-0.75476 -4.5945,-2.38925 -5.80397,-5.16775 -0.33595,-0.77179 -0.44902,-11.2899 -0.57766,-53.73848 -0.14692,-48.48566 -0.20332,-52.85799 -0.69337,-53.75162 -0.29338,-0.53502 -11.55313,-17.08839 -25.02165,-36.78527 l -24.48822,-35.81251 14.84091,-14.87405 c 13.26857,-13.29818 14.87985,-15.02214 15.20828,-16.27194 0.51062,-1.94303 -0.0609,-4.20183 -1.43055,-5.6541 l -1.0419,-1.10473 3.71629,0.003 c 3.23867,0.003 3.92186,0.1003 5.31566,0.75922 0.87965,0.41585 1.98591,1.17014 2.45835,1.6762 0.47245,0.50605 7.79052,11.06804 16.26237,23.47107 8.47185,12.40303 15.85819,23.0314 16.41409,23.61859 1.7853,1.88579 3.22022,2.4433 6.2886,2.4433 3.07332,0 4.52333,-0.56491 6.27148,-2.4433 0.54647,-0.58719 7.86725,-11.14358 16.2684,-23.45865 8.40115,-12.31507 15.72692,-22.87647 16.2795,-23.46979 0.55257,-0.59331 1.72439,-1.41958 2.60403,-1.83614 l 1.59937,-0.75739 h 23.67052 23.67052 l 1.61714,0.75303 c 1.93634,0.90167 3.85735,3.03543 4.34079,4.82151 0.55911,2.06564 0.18842,4.94431 -0.84921,6.59475 -0.49068,0.78046 -15.63733,22.98768 -33.65923,49.34938 -18.02188,26.36169 -33.07697,48.60079 -33.45573,49.42021 l -0.68865,1.48985 -0.15995,52.77887 c -0.14891,49.1421 -0.19786,52.84815 -0.71037,53.7845 -0.82204,1.50186 -2.46205,3.01342 -4.08412,3.76424 -1.41131,0.65327 -1.89623,0.66935 -22.07474,0.73197 -15.63431,0.0485 -20.98423,-0.0324 -22.08698,-0.33411 z"
     id="path1462" />
  <path
     style="fill:#0eaaaa;fill-opacity:1;stroke-width:0.639743"
     d="m 101.812,405.30551 c -0.73242,-0.29629 -2.099872,-1.45167 -3.038789,-2.56751 l -1.707116,-2.02879 0.0026,-105.98846 c 0.0026,-105.17816 0.01225,-106.00463 1.29349,-108.10611 2.311225,-3.79087 3.436555,-3.9599 26.362465,-3.9599 23.12371,0 23.83344,0.12242 26.19064,4.51766 1.07677,2.00775 1.16897,4.21413 1.16897,27.97112 0,22.03386 0.14434,26.07055 0.99068,27.7072 2.38794,4.61775 9.00859,5.87798 13.46751,2.5635 1.37227,-1.02005 15.73772,-15.1451 31.92324,-31.38903 16.18552,-16.24391 30.2056,-29.9475 31.15574,-30.45242 1.42621,-0.75791 6.69238,-0.91803 30.19223,-0.91803 h 28.46468 l 1.74167,1.49811 c 1.22518,1.05385 1.74165,2.10919 1.74165,3.55876 0,1.86912 -3.30583,5.37211 -35.5652,37.6862 -31.76711,31.821 -35.61348,35.88955 -36.01719,38.09766 -0.24859,1.35967 -0.16318,3.4131 0.18979,4.56319 0.35297,1.15008 16.94455,30.32439 36.87018,64.8318 38.76619,67.13568 37.6656,64.96666 35.13697,69.2473 -2.15385,3.64616 -3.13426,3.78757 -26.25969,3.78757 -20.81386,0 -21.10665,-0.0182 -23.17465,-1.43943 -1.62385,-1.11599 -8.22154,-12.04645 -29.36289,-48.64582 -20.38002,-35.28137 -27.75325,-47.52216 -29.18765,-48.45638 -2.12358,-1.38307 -5.67134,-1.62439 -8.43496,-0.57374 -2.33046,0.88597 -21.61537,20.02285 -22.8948,22.71908 -0.83811,1.76616 -0.97731,6.85516 -0.97731,35.72985 0,37.16318 0.0222,36.94274 -3.95989,39.37056 -2.01636,1.22932 -3.14296,1.28926 -23.54908,1.25293 -11.78729,-0.021 -22.03067,-0.28058 -22.76309,-0.57687 z"
     id="path1575" />
  <path
     style="fill:#292929;fill-opacity:1;stroke-width:0.639743"
     d="M 257.58987,545.34796 C 249.86136,544.21108 240.17048,539.82698 220.53666,528.5853 188.56405,510.27885 72.394917,443.05968 67.540082,440.0566 45.106989,426.18006 40.326512,418.58713 38.86806,394.51626 38.048567,380.99096 38.022548,207.66732 38.837998,194.42382 40.485556,167.66713 45.15036,161.60082 79.473115,141.58009 127.10423,113.79652 230.72999,54.306451 237.48986,50.864958 249.30967,44.847413 253.78711,43.51046 262.12,43.51046 c 8.4456,0 12.84862,1.341759 25.26988,7.700642 7.06291,3.615757 124.69858,71.178858 161.21544,92.592808 19.3015,11.31863 27.83275,18.46946 31.90544,26.74293 2.97117,6.03575 4.14568,11.76924 4.89122,23.87698 0.81548,13.2435 0.78946,186.56714 -0.03,200.09244 -1.56161,25.77341 -6.22624,32.25894 -35.807,49.78483 -10.22132,6.05588 -116.3916,67.41513 -143.62249,83.0041 -22.57067,12.92111 -31.16939,16.8225 -39.8411,18.07663 -2.36567,0.34213 -4.44516,0.59265 -4.6211,0.55671 -0.17592,-0.036 -1.9266,-0.30169 -3.89038,-0.59057 z M 147.58062,406.18064 c 1.52453,-0.60998 3.08203,-1.8694 3.85141,-3.11429 1.25252,-2.02661 1.29178,-3.10125 1.29178,-35.36126 0,-18.29913 0.18282,-34.24274 0.40627,-35.43027 0.32091,-1.70548 2.7818,-4.54499 11.71257,-13.51459 l 11.3063,-11.35545 3.16147,0.003 c 2.32764,0.003 3.62254,0.38198 4.90958,1.43943 0.99927,0.821 13.35491,21.57865 28.8434,48.45741 26.35247,45.73208 27.17204,47.06063 29.89483,48.46059 2.73444,1.40595 3.28358,1.4394 23.61559,1.43844 23.27788,-8.6e-4 23.82235,-0.0922 26.77795,-4.47722 3.134,-4.64976 4.43692,-2.03719 -35.42425,-71.03215 -25.6988,-44.4816 -36.46413,-63.67485 -36.63198,-65.31033 -0.13309,-1.29666 0.19223,-3.12702 0.73908,-4.15834 0.53724,-1.0132 9.73558,-10.58024 20.44074,-21.26012 l 19.46393,-19.41793 3.51055,5.0237 c 3.16046,4.52272 31.59129,46.08759 42.30142,61.84319 l 4.26876,6.27973 8.6e-4,52.5767 c 6.4e-4,48.79117 0.0815,52.73464 1.11955,54.77034 0.61521,1.20649 1.93088,2.78985 2.92372,3.51859 1.72953,1.26945 2.71722,1.33268 23.57797,1.50933 20.73246,0.17557 21.9002,0.12272 24.43832,-1.10596 5.21893,-2.52644 4.87665,1.49212 4.87665,-57.25443 0,-42.80328 0.15814,-52.59214 0.87695,-54.27951 0.48233,-1.13224 16.0281,-24.20569 34.54616,-51.27433 l 33.66893,-49.21573 v -3.47848 c 0,-3.17135 -0.21347,-3.69194 -2.41766,-5.89614 -2.13886,-2.13885 -2.89505,-2.46821 -6.55737,-2.85605 -2.27685,-0.24112 -13.63992,-0.34282 -25.25126,-0.22599 -19.17581,0.19293 -21.2905,0.3208 -23.06318,1.39455 -1.27843,0.77438 -7.4464,9.21826 -17.88129,24.47931 -8.76132,12.81344 -16.5633,23.89244 -17.33774,24.61998 -1.91866,1.80249 -5.91895,2.26951 -8.4092,0.98176 -1.42836,-0.73864 -6.45083,-7.57842 -18.37485,-25.02353 -11.9405,-17.46923 -16.96507,-24.31105 -18.45034,-25.12335 -1.84553,-1.00933 -4.98399,-1.13605 -32.74883,-1.32227 -16.88924,-0.11328 -32.57896,-0.0187 -34.86604,0.21013 l -4.15834,0.41609 -31.68936,31.63062 c -34.69958,34.63524 -34.10846,34.15113 -38.83111,31.80191 -1.28026,-0.63685 -2.9221,-1.97018 -3.64853,-2.96297 -1.27264,-1.73928 -1.33243,-2.79604 -1.64064,-28.99843 l -0.31988,-27.19337 -2.32548,-2.13028 c -3.07592,-2.81771 -5.54836,-3.05479 -29.02196,-2.78275 -17.27638,0.20021 -18.70659,0.30452 -20.79167,1.51625 -1.231511,0.71569 -2.743843,2.29906 -3.36074,3.5186 -1.057588,2.09074 -1.112384,8.28754 -0.959617,108.5279 l 0.162016,106.31055 1.324964,1.80615 c 2.885417,3.93329 3.609447,4.04316 26.650877,4.04425 17.70788,6.4e-4 21.33362,-0.15703 23.4983,-1.02317 z"
     id="path1651" />
</svg>
